<svg width="168" height="60" viewBox="0 0 168 60" fill="none" xmlns="http://www.w3.org/2000/svg">
    <style>
        .chakra-text {
            font-family: -apple-system, BlinkMacSystemFont, "Segoe UI", Helvetica, Arial, sans-serif, "Apple Color Emoji", "Segoe UI Emoji", "Segoe UI Symbol";
            font-size: 32px;
            font-weight: bold;
        }
    </style>
    <path d="M75 27L79 14L87 26" stroke="#082060" stroke-width="2" stroke-linecap="round"/>
    <path d="M77 10.9999C86.3333 7.66655 93.6667 9.99988 99 17.9999C89.6667 13.9999 83.6667 13.9999 81 17.9999L77 10.9999Z" fill="#6B2229"/>
    <path d="M73 47C79.0751 47 84 42.0751 84 36C84 29.9249 79.0751 25 73 25C66.9249 25 62 29.9249 62 36C62 42.0751 66.9249 47 73 47Z" fill="#6B2229"/>
    <path d="M95 48C101.627 48 107 42.6274 107 36C107 29.3726 101.627 24 95 24C88.3726 24 83 29.3726 83 36C83 42.6274 88.3726 48 95 48Z" fill="#6B2229"/>
    <path d="M73.2685 44.3196C71.5852 44.3196 70.1364 43.9787 68.9219 43.2969C67.7145 42.608 66.7841 41.6349 66.1307 40.3778C65.4773 39.1136 65.1506 37.6186 65.1506 35.8928C65.1506 34.2095 65.4773 32.7322 66.1307 31.4609C66.7841 30.1896 67.7038 29.1989 68.8899 28.4886C70.0831 27.7784 71.4822 27.4233 73.0874 27.4233C74.1669 27.4233 75.1719 27.5973 76.1023 27.9453C77.0398 28.2862 77.8565 28.8011 78.5526 29.4901C79.2557 30.179 79.8026 31.0455 80.1932 32.0895C80.5838 33.1264 80.7791 34.3409 80.7791 35.733V36.9794H66.9616V34.1669H76.5071C76.5071 33.5135 76.3651 32.9347 76.081 32.4304C75.7969 31.9261 75.4027 31.532 74.8984 31.2479C74.4013 30.9567 73.8224 30.8111 73.1619 30.8111C72.473 30.8111 71.8622 30.9709 71.3295 31.2905C70.804 31.603 70.392 32.0256 70.0938 32.5582C69.7955 33.0838 69.6428 33.6697 69.6357 34.3161V36.9901C69.6357 37.7997 69.7848 38.4993 70.0831 39.0888C70.3885 39.6783 70.8182 40.1328 71.3722 40.4524C71.9261 40.772 72.5831 40.9318 73.343 40.9318C73.8473 40.9318 74.3089 40.8608 74.728 40.7188C75.147 40.5767 75.5057 40.3636 75.804 40.0795C76.1023 39.7955 76.3295 39.4474 76.4858 39.0355L80.6832 39.3125C80.4702 40.321 80.0334 41.2017 79.3729 41.9545C78.7195 42.7003 77.8743 43.2827 76.8374 43.7017C75.8075 44.1136 74.6179 44.3196 73.2685 44.3196Z" fill="white"/>
    <path d="M95.5043 45.3622C93.5966 45.3622 91.9545 44.9759 90.5781 44.2031C89.2098 43.4223 88.1553 42.3196 87.4148 40.8949C86.6742 39.4621 86.304 37.7678 86.304 35.8118C86.304 33.9041 86.6742 32.2299 87.4148 30.7891C88.1553 29.3482 89.1977 28.2254 90.5419 27.4205C91.8942 26.6155 93.4799 26.2131 95.299 26.2131C96.5225 26.2131 97.6615 26.4103 98.7159 26.8047C99.7784 27.1911 100.704 27.7746 101.493 28.5554C102.29 29.3362 102.91 30.3182 103.352 31.5014C103.795 32.6766 104.016 34.053 104.016 35.6307V37.0433H88.3565V33.8558H99.1747C99.1747 33.1153 99.0137 32.4593 98.6918 31.8878C98.3698 31.3163 97.9231 30.8696 97.3516 30.5476C96.7881 30.2176 96.1321 30.0526 95.3835 30.0526C94.6027 30.0526 93.9105 30.2337 93.3068 30.5959C92.7112 30.95 92.2443 31.429 91.9062 32.0327C91.5682 32.6283 91.3951 33.2924 91.3871 34.0249V37.0554C91.3871 37.973 91.5561 38.7659 91.8942 39.4339C92.2403 40.102 92.7273 40.6172 93.3551 40.9794C93.983 41.3416 94.7275 41.5227 95.5888 41.5227C96.1603 41.5227 96.6835 41.4422 97.1584 41.2812C97.6333 41.1203 98.0398 40.8788 98.3778 40.5568C98.7159 40.2348 98.9735 39.8404 99.1506 39.3736L103.908 39.6875C103.666 40.8305 103.171 41.8286 102.423 42.6818C101.682 43.527 100.724 44.187 99.549 44.6619C98.3819 45.1288 97.0336 45.3622 95.5043 45.3622Z" fill="white"/>
    <text x="9" y="45" class="chakra-text" fill="#082060">Car</text>
    <text x="108" y="45" class="chakra-text" fill="#082060">rUp</text>
</svg>

