<svg width="168" height="60" viewBox="0 0 168 60" fill="none" xmlns="http://www.w3.org/2000/svg">
    <path d="M75 27L79 14L87 26" stroke="#00003F" stroke-width="2" stroke-linecap="round"/>
    <path d="M77 10.9999C86.3333 7.66655 93.6667 9.99988 99 17.9999C89.6667 13.9999 83.6667 13.9999 81 17.9999L77 10.9999Z" fill="#5AB9EA"/>
    <path d="M73 47C79.0751 47 84 42.0751 84 36C84 29.9249 79.0751 25 73 25C66.9249 25 62 29.9249 62 36C62 42.0751 66.9249 47 73 47Z" fill="#5890E9"/>
    <path d="M95 48C101.627 48 107 42.6274 107 36C107 29.3726 101.627 24 95 24C88.3726 24 83 29.3726 83 36C83 42.6274 88.3726 48 95 48Z" fill="#5890E9"/>
    <path d="M73.2685 44.3196C71.5852 44.3196 70.1364 43.9787 68.9219 43.2969C67.7145 42.608 66.7841 41.6349 66.1307 40.3778C65.4773 39.1136 65.1506 37.6186 65.1506 35.8928C65.1506 34.2095 65.4773 32.7322 66.1307 31.4609C66.7841 30.1896 67.7038 29.1989 68.8899 28.4886C70.0831 27.7784 71.4822 27.4233 73.0874 27.4233C74.1669 27.4233 75.1719 27.5973 76.1023 27.9453C77.0398 28.2862 77.8565 28.8011 78.5526 29.4901C79.2557 30.179 79.8026 31.0455 80.1932 32.0895C80.5838 33.1264 80.7791 34.3409 80.7791 35.733V36.9794H66.9616V34.1669H76.5071C76.5071 33.5135 76.3651 32.9347 76.081 32.4304C75.7969 31.9261 75.4027 31.532 74.8984 31.2479C74.4013 30.9567 73.8224 30.8111 73.1619 30.8111C72.473 30.8111 71.8622 30.9709 71.3295 31.2905C70.804 31.603 70.392 32.0256 70.0938 32.5582C69.7955 33.0838 69.6428 33.6697 69.6357 34.3161V36.9901C69.6357 37.7997 69.7848 38.4993 70.0831 39.0888C70.3885 39.6783 70.8182 40.1328 71.3722 40.4524C71.9261 40.772 72.5831 40.9318 73.343 40.9318C73.8473 40.9318 74.3089 40.8608 74.728 40.7188C75.147 40.5767 75.5057 40.3636 75.804 40.0795C76.1023 39.7955 76.3295 39.4474 76.4858 39.0355L80.6832 39.3125C80.4702 40.321 80.0334 41.2017 79.3729 41.9545C78.7195 42.7003 77.8743 43.2827 76.8374 43.7017C75.8075 44.1136 74.6179 44.3196 73.2685 44.3196Z" fill="white"/>
    <path d="M95.5043 45.3622C93.5966 45.3622 91.9545 44.9759 90.5781 44.2031C89.2098 43.4223 88.1553 42.3196 87.4148 40.8949C86.6742 39.4621 86.304 37.7678 86.304 35.8118C86.304 33.9041 86.6742 32.2299 87.4148 30.7891C88.1553 29.3482 89.1977 28.2254 90.5419 27.4205C91.8942 26.6155 93.4799 26.2131 95.299 26.2131C96.5225 26.2131 97.6615 26.4103 98.7159 26.8047C99.7784 27.1911 100.704 27.7746 101.493 28.5554C102.29 29.3362 102.91 30.3182 103.352 31.5014C103.795 32.6766 104.016 34.053 104.016 35.6307V37.0433H88.3565V33.8558H99.1747C99.1747 33.1153 99.0137 32.4593 98.6918 31.8878C98.3698 31.3163 97.9231 30.8696 97.3516 30.5476C96.7881 30.2176 96.1321 30.0526 95.3835 30.0526C94.6027 30.0526 93.9105 30.2337 93.3068 30.5959C92.7112 30.95 92.2443 31.429 91.9062 32.0327C91.5682 32.6283 91.3951 33.2924 91.3871 34.0249V37.0554C91.3871 37.973 91.5561 38.7659 91.8942 39.4339C92.2403 40.102 92.7273 40.6172 93.3551 40.9794C93.983 41.3416 94.7275 41.5227 95.5888 41.5227C96.1603 41.5227 96.6835 41.4422 97.1584 41.2812C97.6333 41.1203 98.0398 40.8788 98.3778 40.5568C98.7159 40.2348 98.9735 39.8404 99.1506 39.3736L103.908 39.6875C103.666 40.8305 103.171 41.8286 102.423 42.6818C101.682 43.527 100.724 44.187 99.549 44.6619C98.3819 45.1288 97.0336 45.3622 95.5043 45.3622Z" fill="white"/>
    <path d="M29.5568 28.875H24.5795C24.4886 28.2311 24.303 27.6591 24.0227 27.1591C23.7424 26.6515 23.3826 26.2197 22.9432 25.8636C22.5038 25.5076 21.9962 25.2348 21.4205 25.0455C20.8523 24.8561 20.2348 24.7614 19.5682 24.7614C18.3636 24.7614 17.3144 25.0606 16.4205 25.6591C15.5265 26.25 14.8333 27.1136 14.3409 28.25C13.8485 29.3788 13.6023 30.75 13.6023 32.3636C13.6023 34.0227 13.8485 35.4167 14.3409 36.5455C14.8409 37.6742 15.5379 38.5265 16.4318 39.1023C17.3258 39.678 18.3598 39.9659 19.5341 39.9659C20.1932 39.9659 20.803 39.8788 21.3636 39.7045C21.9318 39.5303 22.4356 39.2765 22.875 38.9432C23.3144 38.6023 23.678 38.1894 23.9659 37.7045C24.2614 37.2197 24.4659 36.6667 24.5795 36.0455L29.5568 36.0682C29.428 37.1364 29.1061 38.1667 28.5909 39.1591C28.0833 40.1439 27.3977 41.0265 26.5341 41.8068C25.678 42.5795 24.6553 43.1932 23.4659 43.6477C22.2841 44.0947 20.947 44.3182 19.4545 44.3182C17.3788 44.3182 15.5227 43.8485 13.8864 42.9091C12.2576 41.9697 10.9697 40.6098 10.0227 38.8295C9.08333 37.0492 8.61364 34.8939 8.61364 32.3636C8.61364 29.8258 9.09091 27.6667 10.0455 25.8864C11 24.1061 12.2955 22.75 13.9318 21.8182C15.5682 20.8788 17.4091 20.4091 19.4545 20.4091C20.803 20.4091 22.053 20.5985 23.2045 20.9773C24.3636 21.3561 25.3902 21.9091 26.2841 22.6364C27.178 23.3561 27.9053 24.2386 28.4659 25.2841C29.0341 26.3295 29.3977 27.5265 29.5568 28.875ZM37.9716 44.3295C36.858 44.3295 35.8655 44.1364 34.9943 43.75C34.1231 43.3561 33.4337 42.7765 32.9261 42.0114C32.4261 41.2386 32.1761 40.2765 32.1761 39.125C32.1761 38.1553 32.3542 37.3409 32.7102 36.6818C33.0663 36.0227 33.5511 35.4924 34.1648 35.0909C34.7784 34.6894 35.4754 34.3864 36.2557 34.1818C37.0436 33.9773 37.8693 33.8333 38.733 33.75C39.7481 33.6439 40.5663 33.5455 41.1875 33.4545C41.8087 33.3561 42.2595 33.2121 42.5398 33.0227C42.8201 32.8333 42.9602 32.553 42.9602 32.1818V32.1136C42.9602 31.3939 42.733 30.8371 42.2784 30.4432C41.8314 30.0492 41.1951 29.8523 40.3693 29.8523C39.4981 29.8523 38.8049 30.0455 38.2898 30.4318C37.7746 30.8106 37.4337 31.2879 37.267 31.8636L32.7898 31.5C33.017 30.4394 33.464 29.5227 34.1307 28.75C34.7973 27.9697 35.6572 27.3712 36.7102 26.9545C37.7708 26.5303 38.9981 26.3182 40.392 26.3182C41.3617 26.3182 42.2898 26.4318 43.1761 26.6591C44.0701 26.8864 44.8617 27.2386 45.5511 27.7159C46.2481 28.1932 46.7973 28.8068 47.1989 29.5568C47.6004 30.2992 47.8011 31.1894 47.8011 32.2273V44H43.2102V41.5795H43.0739C42.7936 42.125 42.4186 42.6061 41.9489 43.0227C41.4792 43.4318 40.9148 43.7538 40.2557 43.9886C39.5966 44.2159 38.8352 44.3295 37.9716 44.3295ZM39.358 40.9886C40.0701 40.9886 40.6989 40.8485 41.2443 40.5682C41.7898 40.2803 42.2178 39.8939 42.5284 39.4091C42.839 38.9242 42.9943 38.375 42.9943 37.7614V35.9091C42.8428 36.0076 42.6345 36.0985 42.3693 36.1818C42.1117 36.2576 41.8201 36.3295 41.4943 36.3977C41.1686 36.4583 40.8428 36.5152 40.517 36.5682C40.1913 36.6136 39.8958 36.6553 39.6307 36.6932C39.0625 36.7765 38.5663 36.9091 38.142 37.0909C37.7178 37.2727 37.3883 37.5189 37.1534 37.8295C36.9186 38.1326 36.8011 38.5114 36.8011 38.9659C36.8011 39.625 37.0398 40.1288 37.517 40.4773C38.0019 40.8182 38.6155 40.9886 39.358 40.9886ZM51.5568 44V26.5455H56.25V29.5909H56.4318C56.75 28.5076 57.2841 27.6894 58.0341 27.1364C58.7841 26.5758 59.6477 26.2955 60.625 26.2955C60.8674 26.2955 61.1288 26.3106 61.4091 26.3409C61.6894 26.3712 61.9356 26.4129 62.1477 26.4659V30.7614C61.9205 30.6932 61.6061 30.6326 61.2045 30.5795C60.803 30.5265 60.4356 30.5 60.1023 30.5C59.3902 30.5 58.7538 30.6553 58.1932 30.9659C57.6402 31.2689 57.2008 31.6932 56.875 32.2386C56.5568 32.7841 56.3977 33.4129 56.3977 34.125V44H51.5568Z" fill="#00003F"/>
    <path d="M107.932 44V26.5455H112.625V29.5909H112.807C113.125 28.5076 113.659 27.6894 114.409 27.1364C115.159 26.5758 116.023 26.2955 117 26.2955C117.242 26.2955 117.504 26.3106 117.784 26.3409C118.064 26.3712 118.311 26.4129 118.523 26.4659V30.7614C118.295 30.6932 117.981 30.6326 117.58 30.5795C117.178 30.5265 116.811 30.5 116.477 30.5C115.765 30.5 115.129 30.6553 114.568 30.9659C114.015 31.2689 113.576 31.6932 113.25 32.2386C112.932 32.7841 112.773 33.4129 112.773 34.125V44H107.932ZM135.491 20.7273H140.412V35.8409C140.412 37.5379 140.007 39.0227 139.196 40.2955C138.393 41.5682 137.268 42.5606 135.821 43.2727C134.374 43.9773 132.688 44.3295 130.764 44.3295C128.832 44.3295 127.143 43.9773 125.696 43.2727C124.249 42.5606 123.124 41.5682 122.321 40.2955C121.518 39.0227 121.116 37.5379 121.116 35.8409V20.7273H126.037V35.4205C126.037 36.3068 126.23 37.0947 126.616 37.7841C127.01 38.4735 127.563 39.0152 128.276 39.4091C128.988 39.803 129.817 40 130.764 40C131.719 40 132.548 39.803 133.253 39.4091C133.965 39.0152 134.514 38.4735 134.901 37.7841C135.295 37.0947 135.491 36.3068 135.491 35.4205V20.7273ZM144.369 50.5455V26.5455H149.142V29.4773H149.358C149.57 29.0076 149.877 28.5303 150.278 28.0455C150.688 27.553 151.218 27.1439 151.869 26.8182C152.528 26.4848 153.347 26.3182 154.324 26.3182C155.597 26.3182 156.771 26.6515 157.847 27.3182C158.922 27.9773 159.782 28.9735 160.426 30.3068C161.07 31.6326 161.392 33.2955 161.392 35.2955C161.392 37.2424 161.078 38.8864 160.449 40.2273C159.828 41.5606 158.979 42.572 157.903 43.2614C156.835 43.9432 155.638 44.2841 154.312 44.2841C153.373 44.2841 152.574 44.1288 151.915 43.8182C151.263 43.5076 150.729 43.1174 150.312 42.6477C149.896 42.1705 149.578 41.6894 149.358 41.2045H149.21V50.5455H144.369ZM149.108 35.2727C149.108 36.3106 149.252 37.2159 149.54 37.9886C149.828 38.7614 150.244 39.3636 150.79 39.7955C151.335 40.2197 151.998 40.4318 152.778 40.4318C153.566 40.4318 154.233 40.2159 154.778 39.7841C155.324 39.3447 155.737 38.7386 156.017 37.9659C156.305 37.1856 156.449 36.2879 156.449 35.2727C156.449 34.2652 156.309 33.3788 156.028 32.6136C155.748 31.8485 155.335 31.25 154.79 30.8182C154.244 30.3864 153.574 30.1705 152.778 30.1705C151.991 30.1705 151.324 30.3788 150.778 30.7955C150.241 31.2121 149.828 31.803 149.54 32.5682C149.252 33.3333 149.108 34.2348 149.108 35.2727Z" fill="#00003F"/>
</svg>

